<svg xmlns="http://www.w3.org/2000/svg" viewBox="0 0 32 32">
  <defs>
    <linearGradient id="g" x1="0" y1="0" x2="1" y2="1">
      <stop offset="0%" stop-color="#3b82f6"/>
      <stop offset="100%" stop-color="#1d4ed8"/>
    </linearGradient>
  </defs>
  <rect width="32" height="32" rx="8" fill="url(#g)"/>
  <path d="M20.5 18.5l-2-2c-.4-.4-1-.4-1.4 0l-.8.8c-.2.2-.5.2-.7 0-1-.6-1.9-1.5-2.5-2.5-.2-.2-.2-.5 0-.7l.8-.8c.4-.4.4-1 0-1.4l-2-2c-.4-.4-1-.4-1.4 0l-1.1 1.1c-.5.5-.6 1.2-.4 1.8 1.2 3.2 3.7 5.7 6.9 6.9.6.2 1.3.1 1.8-.4l1.1-1.1c.4-.4.4-1.1-.3-1.7z" fill="white"/>
</svg>
