<svg width="1600" height="900" viewBox="0 0 1600 900" fill="none" xmlns="http://www.w3.org/2000/svg">
  <rect width="1600" height="900" rx="40" fill="#F8FAFC"/>
  <rect x="80" y="80" width="1440" height="220" rx="30" fill="#FFFFFF" stroke="#CBD5E1" stroke-width="2"/>
  <circle cx="160" cy="190" r="18" fill="#38BDF8"/>
  <circle cx="210" cy="190" r="18" fill="#60A5FA"/>
  <circle cx="260" cy="190" r="18" fill="#93C5FD"/>
  <rect x="120" y="140" width="320" height="20" rx="10" fill="#E2E8F0"/>
  <rect x="120" y="180" width="420" height="20" rx="10" fill="#E2E8F0"/>
  <rect x="120" y="220" width="220" height="16" rx="8" fill="#E2E8F0"/>
  <rect x="80" y="340" width="700" height="380" rx="36" fill="#1E293B"/>
  <rect x="120" y="390" width="420" height="260" rx="28" fill="#0EA5E9"/>
  <rect x="120" y="430" width="420" height="24" rx="12" fill="#FFFFFF" opacity="0.8"/>
  <rect x="120" y="470" width="420" height="24" rx="12" fill="#FFFFFF" opacity="0.8"/>
  <rect x="120" y="510" width="280" height="24" rx="12" fill="#FFFFFF" opacity="0.8"/>
  <rect x="560" y="390" width="460" height="148" rx="24" fill="#0F172A"/>
  <rect x="600" y="430" width="380" height="20" rx="10" fill="#FFFFFF" opacity="0.8"/>
  <rect x="600" y="470" width="320" height="20" rx="10" fill="#FFFFFF" opacity="0.8"/>
  <rect x="600" y="510" width="280" height="20" rx="10" fill="#FFFFFF" opacity="0.8"/>
  <rect x="80" y="760" width="1440" height="40" rx="20" fill="#E2E8F0"/>
  <g opacity="0.7">
    <rect x="880" y="390" width="120" height="120" rx="20" fill="#EFF6FF"/>
    <circle cx="940" cy="450" r="18" fill="#2563EB"/>
    <rect x="910" y="492" width="60" height="12" rx="6" fill="#CBD5E1"/>
    <rect x="900" y="520" width="90" height="10" rx="5" fill="#CBD5E1"/>
  </g>
  <rect x="1120" y="518" width="220" height="120" rx="30" fill="#FFFFFF" stroke="#CBD5E1" stroke-width="1.5"/>
  <path d="M1160 560H1260" stroke="#0EA5E9" stroke-width="10" stroke-linecap="round"/>
  <path d="M1160 600H1280" stroke="#93C5FD" stroke-width="10" stroke-linecap="round"/>
  <path d="M1160 640H1210" stroke="#38BDF8" stroke-width="10" stroke-linecap="round"/>
</svg>
